HIERARCHY
ROOT Hips
{
  OFFSET 0.849866 78.6569 -0.536788
  CHANNELS 6 Xposition Yposition Zposition Zrotation Xrotation Yrotation
  JOINT Bip01_Pelvis
  {
    OFFSET 0 0 0
    CHANNELS 6 Xposition Yposition Zposition Zrotation Xrotation Yrotation
    JOINT BN_Tail_01
    {
      OFFSET -5.52397 -0.332285 0
      CHANNELS 6 Xposition Yposition Zposition Zrotation Xrotation Yrotation
      JOINT BN_Tail_02
      {
        OFFSET 6.48885 -2.032e-005 0
        CHANNELS 6 Xposition Yposition Zposition Zrotation Xrotation Yrotation
        JOINT BN_Tail_03
        {
          OFFSET 7.08759 1.016e-005 -0.00261112
          CHANNELS 6 Xposition Yposition Zposition Zrotation Xrotation Yrotation
          End Site
          {
            OFFSET 0 0 0
          }
        }
      }
    }
    JOINT Bip01_Spine
    {
      OFFSET 4.02227 0.398968 0
      CHANNELS 6 Xposition Yposition Zposition Zrotation Xrotation Yrotation
      JOINT BN_UpperArm_R_01
      {
        OFFSET 4.84413 -3.22857 -3.65581
        CHANNELS 6 Xposition Yposition Zposition Zrotation Xrotation Yrotation
        JOINT BN_Forearm_R_01
        {
          OFFSET 8.51614 0 0
          CHANNELS 6 Xposition Yposition Zposition Zrotation Xrotation Yrotation
          JOINT BN_hand_R_01
          {
            OFFSET 10.1924 0 0
            CHANNELS 6 Xposition Yposition Zposition Zrotation Xrotation Yrotation
            JOINT BN_Finger_R_02
            {
              OFFSET 14.5949 -1.43855 0.585079
              CHANNELS 6 Xposition Yposition Zposition Zrotation Xrotation Yrotation
              End Site
              {
                OFFSET 0 0 0
              }
            }
            JOINT BN_Finger_R_01
            {
              OFFSET 14.4623 0 0
              CHANNELS 6 Xposition Yposition Zposition Zrotation Xrotation Yrotation
              End Site
              {
                OFFSET 0 0 0
              }
            }
          }
        }
      }
      JOINT BN_UpperArm_L_01
      {
        OFFSET 4.84412 -3.22858 3.65557
        CHANNELS 6 Xposition Yposition Zposition Zrotation Xrotation Yrotation
        JOINT BN_Forearm_L_01
        {
          OFFSET 8.51611 0 0
          CHANNELS 6 Xposition Yposition Zposition Zrotation Xrotation Yrotation
          JOINT BN_hand_L_01
          {
            OFFSET 10.1924 0 0
            CHANNELS 6 Xposition Yposition Zposition Zrotation Xrotation Yrotation
            JOINT BN_Finger_L_01
            {
              OFFSET 14.4623 0 0
              CHANNELS 6 Xposition Yposition Zposition Zrotation Xrotation Yrotation
              End Site
              {
                OFFSET 0 0 0
              }
            }
            JOINT BN_Finger_L_02
            {
              OFFSET 14.5949 1.43855 0.585071
              CHANNELS 6 Xposition Yposition Zposition Zrotation Xrotation Yrotation
              End Site
              {
                OFFSET 0 0 0
              }
            }
          }
        }
      }
      JOINT Bip01_R_Thigh
      {
        OFFSET -4.03411 -0.254132 -3.45377
        CHANNELS 6 Xposition Yposition Zposition Zrotation Xrotation Yrotation
        JOINT Bip01_R_Calf
        {
          OFFSET 3.92618 0 0
          CHANNELS 6 Xposition Yposition Zposition Zrotation Xrotation Yrotation
          JOINT Bip01_R_HorseLink
          {
            OFFSET 6.12319 0 0
            CHANNELS 6 Xposition Yposition Zposition Zrotation Xrotation Yrotation
            JOINT Bip01_R_Foot
            {
              OFFSET 9.94776 0 0
              CHANNELS 6 Xposition Yposition Zposition Zrotation Xrotation Yrotation
              JOINT Bip01_R_Toe3
              {
                OFFSET 0.881252 -0.110953 0.0158496
                CHANNELS 6 Xposition Yposition Zposition Zrotation Xrotation Yrotation
                JOINT Bip01_R_Toe31
                {
                  OFFSET 2.32137 0 0
                  CHANNELS 6 Xposition Yposition Zposition Zrotation Xrotation Yrotation
                  JOINT Bip01_R_Toe32
                  {
                    OFFSET 1.63293 0 0
                    CHANNELS 6 Xposition Yposition Zposition Zrotation Xrotation Yrotation
                    JOINT Bip01_R_Toe3Nub
                    {
                      OFFSET 1.72131 0 0
                      CHANNELS 6 Xposition Yposition Zposition Zrotation Xrotation Yrotation
                      End Site
                      {
                        OFFSET 0 0 0
                      }
                    }
                  }
                }
              }
              JOINT Bip01_R_Toe2
              {
                OFFSET 0.994751 0.967285 -1.09428
                CHANNELS 6 Xposition Yposition Zposition Zrotation Xrotation Yrotation
                JOINT Bip01_R_Toe21
                {
                  OFFSET 2.20201 0 0
                  CHANNELS 6 Xposition Yposition Zposition Zrotation Xrotation Yrotation
                  JOINT Bip01_R_Toe22
                  {
                    OFFSET 1.84925 0 0
                    CHANNELS 6 Xposition Yposition Zposition Zrotation Xrotation Yrotation
                    JOINT Bip01_R_Toe2Nub
                    {
                      OFFSET 1.70976 0 0
                      CHANNELS 6 Xposition Yposition Zposition Zrotation Xrotation Yrotation
                      End Site
                      {
                        OFFSET 0 0 0
                      }
                    }
                  }
                }
              }
              JOINT Bip01_R_Toe1
              {
                OFFSET 1.3748 1.34027 -0.0712419
                CHANNELS 6 Xposition Yposition Zposition Zrotation Xrotation Yrotation
                JOINT Bip01_R_Toe11
                {
                  OFFSET 2.26122 0 0
                  CHANNELS 6 Xposition Yposition Zposition Zrotation Xrotation Yrotation
                  JOINT Bip01_R_Toe12
                  {
                    OFFSET 2.22215 0 0
                    CHANNELS 6 Xposition Yposition Zposition Zrotation Xrotation Yrotation
                    JOINT Bip01_R_Toe1Nub
                    {
                      OFFSET 1.61867 0 0
                      CHANNELS 6 Xposition Yposition Zposition Zrotation Xrotation Yrotation
                      End Site
                      {
                        OFFSET 0 0 0
                      }
                    }
                  }
                }
              }
              JOINT Bip01_R_Toe0
              {
                OFFSET 1.40695 0.687986 0.883783
                CHANNELS 6 Xposition Yposition Zposition Zrotation Xrotation Yrotation
                JOINT Bip01_R_Toe01
                {
                  OFFSET 2.26828 0 0
                  CHANNELS 6 Xposition Yposition Zposition Zrotation Xrotation Yrotation
                  JOINT Bip01_R_Toe02
                  {
                    OFFSET 2.09769 0 0
                    CHANNELS 6 Xposition Yposition Zposition Zrotation Xrotation Yrotation
                    JOINT Bip01_R_Toe0Nub
                    {
                      OFFSET 1.53753 0 0
                      CHANNELS 6 Xposition Yposition Zposition Zrotation Xrotation Yrotation
                      End Site
                      {
                        OFFSET 0 0 0
                      }
                    }
                  }
                }
              }
            }
          }
        }
      }
      JOINT Bip01_L_Thigh
      {
        OFFSET -4.03411 -0.254147 3.45377
        CHANNELS 6 Xposition Yposition Zposition Zrotation Xrotation Yrotation
        JOINT Bip01_L_Calf
        {
          OFFSET 3.92616 0 0
          CHANNELS 6 Xposition Yposition Zposition Zrotation Xrotation Yrotation
          JOINT Bip01_L_HorseLink
          {
            OFFSET 6.1232 0 0
            CHANNELS 6 Xposition Yposition Zposition Zrotation Xrotation Yrotation
            JOINT Bip01_L_Foot
            {
              OFFSET 9.94775 0 0
              CHANNELS 6 Xposition Yposition Zposition Zrotation Xrotation Yrotation
              JOINT Bip01_L_Toe3
              {
                OFFSET 0.881246 -0.110986 -0.0157582
                CHANNELS 6 Xposition Yposition Zposition Zrotation Xrotation Yrotation
                JOINT Bip01_L_Toe31
                {
                  OFFSET 2.32136 0 0
                  CHANNELS 6 Xposition Yposition Zposition Zrotation Xrotation Yrotation
                  JOINT Bip01_L_Toe32
                  {
                    OFFSET 1.63293 0 0
                    CHANNELS 6 Xposition Yposition Zposition Zrotation Xrotation Yrotation
                    JOINT Bip01_L_Toe3Nub
                    {
                      OFFSET 1.7213 0 0
                      CHANNELS 6 Xposition Yposition Zposition Zrotation Xrotation Yrotation
                      End Site
                      {
                        OFFSET 0 0 0
                      }
                    }
                  }
                }
              }
              JOINT Bip01_L_Toe2
              {
                OFFSET 0.994649 0.967162 1.09447
                CHANNELS 6 Xposition Yposition Zposition Zrotation Xrotation Yrotation
                JOINT Bip01_L_Toe21
                {
                  OFFSET 2.202 0 0
                  CHANNELS 6 Xposition Yposition Zposition Zrotation Xrotation Yrotation
                  JOINT Bip01_L_Toe22
                  {
                    OFFSET 1.84926 0 0
                    CHANNELS 6 Xposition Yposition Zposition Zrotation Xrotation Yrotation
                    JOINT Bip01_L_Toe2Nub
                    {
                      OFFSET 1.70976 0 0
                      CHANNELS 6 Xposition Yposition Zposition Zrotation Xrotation Yrotation
                      End Site
                      {
                        OFFSET 0 0 0
                      }
                    }
                  }
                }
              }
              JOINT Bip01_L_Toe1
              {
                OFFSET 1.37483 1.34021 0.0715086
                CHANNELS 6 Xposition Yposition Zposition Zrotation Xrotation Yrotation
                JOINT Bip01_L_Toe11
                {
                  OFFSET 2.26124 0 0
                  CHANNELS 6 Xposition Yposition Zposition Zrotation Xrotation Yrotation
                  JOINT Bip01_L_Toe12
                  {
                    OFFSET 2.22214 0 0
                    CHANNELS 6 Xposition Yposition Zposition Zrotation Xrotation Yrotation
                    JOINT Bip01_L_Toe1Nub
                    {
                      OFFSET 1.61867 0 0
                      CHANNELS 6 Xposition Yposition Zposition Zrotation Xrotation Yrotation
                      End Site
                      {
                        OFFSET 0 0 0
                      }
                    }
                  }
                }
              }
              JOINT Bip01_L_Toe0
              {
                OFFSET 1.40707 0.688009 -0.883564
                CHANNELS 6 Xposition Yposition Zposition Zrotation Xrotation Yrotation
                JOINT Bip01_L_Toe01
                {
                  OFFSET 2.26828 0 0
                  CHANNELS 6 Xposition Yposition Zposition Zrotation Xrotation Yrotation
                  JOINT Bip01_L_Toe02
                  {
                    OFFSET 2.0977 0 0
                    CHANNELS 6 Xposition Yposition Zposition Zrotation Xrotation Yrotation
                    JOINT Bip01_L_Toe0Nub
                    {
                      OFFSET 1.53752 0 0
                      CHANNELS 6 Xposition Yposition Zposition Zrotation Xrotation Yrotation
                      End Site
                      {
                        OFFSET 0 0 0
                      }
                    }
                  }
                }
              }
            }
          }
        }
      }
      JOINT Bip01_Spine1
      {
        OFFSET 4.90674 -0.00437896 0
        CHANNELS 6 Xposition Yposition Zposition Zrotation Xrotation Yrotation
        JOINT Bip01_Neck
        {
          OFFSET 5.56447 -1.28357 0
          CHANNELS 6 Xposition Yposition Zposition Zrotation Xrotation Yrotation
          JOINT Bip01_Neck1
          {
            OFFSET 2.79308 -0.00219964 0
            CHANNELS 6 Xposition Yposition Zposition Zrotation Xrotation Yrotation
            JOINT Bip01_Head
            {
              OFFSET 2.79272 0 0
              CHANNELS 6 Xposition Yposition Zposition Zrotation Xrotation Yrotation
              JOINT BN_Mouth_01
              {
                OFFSET 4.19089 0.0665938 0
                CHANNELS 6 Xposition Yposition Zposition Zrotation Xrotation Yrotation
                End Site
                {
                  OFFSET 0 0 0
                }
              }
              JOINT Bip01_HeadNub
              {
                OFFSET 6.95118 0 0
                CHANNELS 6 Xposition Yposition Zposition Zrotation Xrotation Yrotation
                End Site
                {
                  OFFSET 0 0 0
                }
              }
            }
          }
        }
      }
    }
  }
}
MOTION
Frames:	3
Frame Time:	0.0333333
-50.2895 6.61981 1.52626 178.307 -5.10015 -123.284 0 0 0 -89.5313 6.17846 -90.0459 -5.52397 -0.332268 -8.88178e-016 -13.6052 1.92459 174.315 6.48887 -1.59659e-011 -0.00426466 10.4484 -0.356278 -2.43639 7.08757 4.05933e-011 -0.00419608 -5.696 0.647871 -1.97075 4.02121 0.399172 -0.00446281 14.0425 16.1621 -0.0393154 4.84412 -3.22852 -3.65581 -82.3965 -6.08991 131.643 8.51613 1.62715e-012 -3.8147e-006 9.73957 -1.5133 32.1748 10.1924 9.87656e-013 -1.90735e-006 -17.8187 -3.7144 15.4463 14.5949 -1.43856 0.585095 -49.3999 10.1082 23.4816 14.4623 3.8147e-006 -6.92779e-013 -11.9879 2.62145 12.9352 4.84412 -3.22856 3.65557 102.614 -4.3887 -174.143 8.51613 -7.10544e-015 8.88178e-016 -36.3254 -9.86012e-006 1.62685 10.1924 9.16602e-013 -5.72204e-006 9.29594 0.239334 3.93565 14.4623 -2.84218e-014 1.42109e-014 0.688437 7.29232 11.0964 14.5949 1.43853 0.585074 47.0387 9.75356 12.2716 -4.00138 -0.394546 -3.47436 -157.124 0.478537 -161.567 3.92615 -4.4409e-016 -1.43885e-013 -87.6753 5.15042e-006 6.96402e-006 6.12319 0 0 81.0485 0.0022463 0.000358639 9.94775 1.77637e-015 9.53675e-007 -49.9151 20.9164 25.9553 0.881242 -0.110958 0.0158091 148.962 -4.51659 179.508 2.32138 -1.14442e-005 4.90274e-013 -25.644 0.00138054 -0.00287288 1.63293 2.8422e-014 1.77636e-015 -61.8193 0.00847454 -0.00453053 1.72129 -3.55278e-015 2.66453e-015 -1.01347e-005 1.07635e-005 -3.15002e-007 0.994698 0.967281 -1.09433 84.1993 -9.00852 13.2331 2.202 7.6295e-006 2.38418e-007 -59.9693 -0.000238715 0.000134558 1.84925 -7.10557e-015 -1.19209e-007 -35.3034 -1.34584e-005 -9.76832e-006 1.70976 7.62957e-006 3.57627e-007 1.24937e-006 9.84246e-007 5.30242e-007 1.37481 1.34026 -0.0713082 82.8671 1.62692 13.7124 2.26123 1.5259e-005 2.38418e-007 -43.0557 7.2009e-006 8.28246e-006 2.22214 7.62952e-006 -2.38418e-007 -38.5038 0.00128631 -0.0016179 1.61866 7.62955e-006 -1.10134e-013 -1.21172e-007 -2.78526e-008 6.95319e-007 1.40697 0.687974 0.883714 96.805 5.02553 4.68663 2.26827 0 9.53674e-007 -52.4161 -9.03641e-006 -1.40566e-005 2.09769 -1.77639e-015 -9.53674e-007 -61.0221 6.2451e-006 6.96842e-006 1.53752 7.10561e-015 -9.53674e-007 4.53332e-007 1.005e-005 1.11031e-005 -3.99696 1.52845 3.1601 -160.302 12.5099 -175.099 3.92615 -3.8147e-006 -9.53674e-007 -58.999 3.37613e-006 9.8726e-006 6.1232 -1.52588e-005 -9.53674e-007 109.483 -7.11291e-006 -1.19886e-005 9.94776 2.28883e-005 1.67688e-012 -103.84 -9.07491 -0.468972 0.881244 -0.11097 -0.0158137 108.579 3.17491 -176.675 2.32138 -1.06583e-014 4.76837e-007 44.4425 1.34544e-005 3.6575e-006 1.63292 -3.81476e-006 -4.76837e-007 -42.9654 -4.77015e-006 4.67831e-006 1.72129 4.76847e-007 -3.55271e-015 179.96 -0.000139456 0.000236087 0.994715 0.967263 1.09433 28.8105 14.5013 10.565 2.20201 3.81474e-006 -1.77636e-015 63.0462 6.89989e-007 3.41775e-006 1.84922 -1.90738e-006 -5.32907e-014 -35.3034 -4.70023e-006 6.91661e-006 1.70976 1.19018e-013 1.77636e-015 -179.96 -1.14811e-005 0.000180535 1.3748 1.34027 0.0713056 41.5143 12.4868 -2.06834 2.26121 -2.44252e-014 -1.77636e-015 49.2911 1.10123e-005 3.38907e-006 2.22213 3.55277e-015 4.76837e-007 -38.5073 -1.5576e-005 -1.04798e-005 1.61868 3.81477e-006 4.76837e-007 -179.96 -1.36517e-005 0.000181015 1.40699 0.687979 -0.883719 85.2418 -3.95836 -10.0977 2.26828 -7.10552e-014 3.8147e-006 45.0286 -0.000117874 -5.16504e-006 2.0977 1.90738e-006 7.6294e-006 -61.0221 4.7123e-005 9.53155e-005 1.53751 7.62959e-006 -3.81469e-006 -179.96 -2.9469e-005 0.00015516 4.9071 -0.00428009 -0.000375747 15.815 4.32779 -15.4542 5.56426 -1.28356 0.000253766 4.6509 -4.97666 -5.58777 2.79365 -0.00202942 0.000147581 11.7275 2.57846 -8.52155 2.79272 1.52588e-005 -1.21858e-012 25.0125 0.429512 17.9909 4.19087 0.0665818 6.00275e-010 -151.982 -0.0246735 -179.994 6.95116 1.52588e-005 1.82965e-013 9.69495e-007 9.96127e-006 1.00136e-005 
-50.2895 6.40084 1.52626 176.766 -4.30883 -123.917 0 0 0 -89.9478 6.18121 -90.0043 -5.52397 -0.332268 -4.44089e-016 -16.3828 -0.000161128 176.723 6.48887 -2.80807e-011 -0.00426466 6.44061 -0.00194307 -3.26505 7.08757 6.66134e-011 -0.00419608 -9.73674 -0.00182429 -3.24544 4.02121 0.398976 -0.00227478 13.8134 11.2224 1.17876 4.84412 -3.22852 -3.65581 -84.0073 -7.6979 125.715 8.51613 1.09424e-012 -3.8147e-006 9.75334 -1.46229 37.5828 10.1924 1.23635e-012 -1.90735e-006 -17.3055 -4.71315 21.9691 14.5949 -1.43856 0.585095 -41.3881 15.874 21.9646 14.4623 3.8147e-006 -8.52651e-013 -8.28364 1.93574 10.7096 4.84412 -3.22856 3.65557 102.794 -4.03919 176.959 8.51613 7.10544e-015 8.88178e-016 -36.3247 0.0005437 3.11461 10.1924 9.16602e-013 -5.72204e-006 9.2853 0.239941 6.39283 14.4623 -7.10544e-015 1.24345e-014 0.564686 7.26737 12.4287 14.5949 1.43853 0.585074 46.8838 9.72953 13.6139 -3.92852 -0.109725 -3.57929 -157.04 -3.97318 -158.495 3.92615 -8.88179e-016 -1.86518e-013 -88.1381 1.53118e-005 5.77919e-006 6.12319 7.10545e-015 -1.77636e-015 81.1997 2.57477e-005 9.90894e-006 9.94775 1.77637e-015 9.53675e-007 -41.8594 23.9594 18.2302 0.881243 -0.110958 0.0158091 154.72 -4.61019 179.945 2.32138 -1.14442e-005 7.61169e-013 -25.6442 0.00130895 -0.00272576 1.63293 7.10551e-015 1.77636e-015 -67.5585 4.80284e-005 -1.10811e-005 1.7213 -8.88195e-016 8.88178e-016 -1.01347e-005 1.07635e-005 -3.15003e-007 0.994698 0.96728 -1.09433 78.52 -10.2744 12.2816 2.202 7.6295e-006 2.38418e-007 -59.9696 -1.58494e-006 -3.53159e-006 1.84925 -2.13167e-014 -1.19209e-007 -35.3034 -1.23422e-005 -1.05071e-005 1.70976 7.62957e-006 3.57627e-007 1.24937e-006 9.84246e-007 5.30242e-007 1.37481 1.34026 -0.0713082 77.2949 0.259528 13.8041 2.26123 1.5259e-005 2.38418e-007 -43.0557 6.76143e-006 7.83127e-006 2.22214 7.62952e-006 -2.38419e-007 -38.5037 0.00135455 -0.00170398 1.61866 7.62954e-006 -1.98952e-013 -1.21172e-007 -2.78526e-008 6.95319e-007 1.40697 0.687974 0.883714 91.0687 4.53307 5.16316 2.26827 7.10552e-015 9.53674e-007 -52.4161 -1.59958e-005 -9.20352e-006 2.09769 -1.77639e-015 -9.53674e-007 -61.0221 7.20355e-006 6.35412e-006 1.53752 -3.5528e-015 -9.53674e-007 4.53332e-007 1.005e-005 1.11031e-005 -4.06796 1.23456 3.19369 -162.29 7.28147 -173.56 3.92615 -3.8147e-006 -9.53674e-007 -61.3935 4.01955e-006 9.19184e-006 6.1232 -1.52588e-005 -9.53674e-007 110.008 -5.45262e-006 -1.02829e-005 9.94776 2.28883e-005 1.04361e-012 -110.382 -7.46081 -6.60019 0.881244 -0.11097 -0.0158137 109.13 3.23637 -176.683 2.32138 0 4.76837e-007 44.4425 1.45445e-005 3.25441e-006 1.63292 -3.81476e-006 -4.76837e-007 -43.5165 -5.73327e-006 4.12577e-006 1.72129 4.76847e-007 -3.55271e-015 179.96 -0.000139451 0.000236087 0.994715 0.967263 1.09433 28.3659 14.1271 18.3368 2.20201 3.81474e-006 -1.22569e-013 63.0462 2.1534e-006 4.52099e-006 1.84922 -1.90738e-006 5.68434e-014 -35.3034 -5.45272e-006 5.41944e-006 1.70976 1.33673e-013 -1.77636e-015 -179.96 -1.14813e-005 0.000180534 1.3748 1.34027 0.0713057 40.953 12.3925 1.02982 2.26122 -2.22047e-014 -1.77636e-015 49.2911 1.04462e-005 3.38052e-006 2.22213 -3.55277e-015 4.76837e-007 -38.5073 -1.50084e-005 -1.05132e-005 1.61868 3.81477e-006 4.76837e-007 -179.96 -1.3651e-005 0.000181016 1.40699 0.687979 -0.883719 83.9694 -3.75613 -16.8352 2.26828 4.97386e-014 3.81469e-006 49.8523 -7.05073e-005 -3.8103e-007 2.0977 1.90738e-006 7.62939e-006 -61.0221 2.61347e-005 6.03124e-005 1.53751 7.62959e-006 -3.81469e-006 -179.96 -2.94687e-005 0.000155161 4.9071 -0.00428009 -0.000375748 15.8396 4.41265 -16.8458 5.56426 -1.28356 0.00025376 5.50373 -5.14966 -5.279 2.79365 -0.00202942 0.000147581 9.72848 2.48424 -6.37172 2.79272 1.52588e-005 -1.16529e-012 22.2119 3.64304 13.9326 4.19087 0.0665818 -1.41213e-009 -150.901 -0.0257416 -179.993 6.95116 1.52588e-005 -4.31655e-013 9.69495e-007 9.96127e-006 1.00136e-005 
-50.2895 6.18613 1.52626 178.052 -4.58354 -123.9 0 0 0 -84.8021 6.15271 -90.5561 -5.52397 -0.332268 2.22045e-016 -16.3828 -0.0001522 175.913 6.48887 -7.59713e-011 -0.00426466 5.71855 -0.00281 -2.93095 7.08757 -5.23884e-011 -0.00419608 -9.62436 -0.293969 -0.968835 4.02121 0.397392 -0.03651 13.5997 1.54272 3.53971 4.84412 -3.22852 -3.65581 -84.0156 -7.64662 126.231 8.51613 9.52129e-013 -3.8147e-006 9.73244 -1.50181 30.5953 10.1924 1.38556e-012 -1.90735e-006 -17.1356 -4.98617 28.5807 14.5949 -1.43856 0.585095 -38.0127 18.1466 30.4185 14.4623 3.8147e-006 -9.02389e-013 -7.22125 1.93567 19.0987 4.84412 -3.22856 3.65557 102.794 -4.03727 176.393 8.51613 0 8.88178e-016 -36.3221 -0.00181471 0.544121 10.1924 6.82122e-013 -5.72204e-006 9.25715 0.233896 13.3441 14.4623 -7.10544e-015 -2.22045e-015 0.56428 7.26718 12.4171 14.5949 1.43853 0.585074 46.8842 9.72957 13.6024 -3.78346 0.467348 -3.67205 -154.139 -7.28393 -154.203 3.92615 2.22045e-016 -1.86518e-013 -84.3374 1.51993e-005 5.62453e-006 6.12319 0 -3.55271e-015 79.739 0.00220844 0.000404117 9.94775 8.88183e-015 9.53675e-007 -39.1365 24.8781 12.8283 0.881243 -0.110958 0.0158091 146.755 -4.50457 179.33 2.32138 -1.14442e-005 8.55316e-013 -25.6445 0.00125012 -0.00260284 1.63293 1.4211e-014 -8.88178e-016 -59.6226 0.00485416 -0.00283619 1.7213 -3.55278e-015 0 -1.01347e-005 1.07635e-005 -3.14979e-007 0.994698 0.96728 -1.09433 86.364 -8.49674 13.5623 2.202 7.6295e-006 2.38418e-007 -59.9696 -1.3157e-006 -3.01726e-006 1.84925 -1.24347e-014 -1.19209e-007 -35.3034 -1.32633e-005 -1.09122e-005 1.70976 7.62957e-006 3.57627e-007 1.24937e-006 9.84246e-007 5.30242e-007 1.37481 1.34026 -0.0713082 85.0085 2.14732 13.6447 2.26123 1.5259e-005 2.38418e-007 -43.0557 7.56085e-006 7.72404e-006 2.22214 7.62952e-006 -2.38419e-007 -38.5035 0.00142263 -0.00178986 1.61866 7.62954e-006 -2.45137e-013 -1.21172e-007 -2.78526e-008 6.95319e-007 1.40697 0.687974 0.883714 99.0094 5.20089 4.4881 2.26827 0 9.53674e-007 -52.4161 -1.47394e-005 -8.99346e-006 2.09769 0 -9.53674e-007 -61.0221 -1.43694e-006 1.00187e-005 1.53752 -7.1056e-015 -9.53674e-007 4.53332e-007 1.005e-005 1.11031e-005 -4.21011 0.653534 3.21978 -161.552 3.40712 -170.19 3.92615 -3.8147e-006 -9.53674e-007 -60.3132 3.34592e-006 9.58547e-006 6.1232 -1.52588e-005 -9.53674e-007 109.658 -5.93856e-006 -1.03121e-005 9.94776 2.28883e-005 1.10312e-012 -98.6791 -11.7258 4.88573 0.881244 -0.11097 -0.0158137 108.178 3.15365 -176.654 2.32138 3.55276e-015 4.76837e-007 44.4425 1.45594e-005 8.16792e-007 1.63292 -3.81476e-006 -4.76837e-007 -42.5636 -7.17934e-006 5.95178e-006 1.72129 4.76847e-007 0 179.96 -0.00013945 0.000236085 0.994715 0.967263 1.09433 29.1646 14.7331 4.96137 2.20201 3.81474e-006 -3.90798e-014 63.0462 4.64113e-007 4.04869e-006 1.84922 -1.90738e-006 -6.39488e-014 -35.3034 -4.06207e-006 7.02136e-006 1.70976 7.99376e-014 1.77636e-015 -179.96 -1.14809e-005 0.000180534 1.37479 1.34027 0.0713056 41.921 12.5392 -4.29663 2.26121 -2.13165e-014 -1.77636e-015 49.2911 1.22356e-005 4.60846e-006 2.22213 -3.55277e-015 4.76837e-007 -38.5073 -1.52071e-005 -1.24485e-005 1.61868 3.81477e-006 4.76837e-007 -179.96 -1.36521e-005 0.000181014 1.40699 0.687979 -0.883719 86.1665 -4.01096 -5.25091 2.26828 -2.16718e-013 3.8147e-006 41.5557 -0.000247201 3.70615e-006 2.0977 1.90737e-006 7.6294e-006 -61.0221 0.000105443 0.000217529 1.53751 7.62959e-006 -3.81469e-006 -179.96 -2.94694e-005 0.000155159 4.9071 -0.00428009 -0.000375748 15.8769 4.52691 -18.0991 5.56426 -1.28356 0.000253732 4.08755 -4.69001 -1.93055 2.79365 -0.00202942 0.000147581 9.0133 2.41812 -3.4753 2.79272 1.52588e-005 -7.03437e-013 23.0271 3.77697 -2.12302 4.19087 0.0665818 -3.94673e-009 -149.84 -0.0267487 -179.993 6.95116 1.52588e-005 -1.20615e-012 9.69494e-007 9.96127e-006 1.00136e-005 
